<svg xmlns="http://www.w3.org/2000/svg" width="23.473" height="22.927" viewBox="0 0 23.473 22.927">
  <path id="Path_4" data-name="Path 4" d="M18.759,8.4a2.389,2.389,0,0,1,2.213,1.508l2.4,4.694,5.106.753a2.527,2.527,0,0,1,1.959,1.888,2.25,2.25,0,0,1-.785,2.28l-3.826,3.7.962,5.205a2.488,2.488,0,0,1-.5,2.065,2.289,2.289,0,0,1-1.77.838,2.6,2.6,0,0,1-1.34-.392l-4.544-2.464-4.58,2.483a2.429,2.429,0,0,1-1.109.263,2.611,2.611,0,0,1-2-.923,2.227,2.227,0,0,1-.468-1.87l.966-5.223L7.819,19.474a2.61,2.61,0,0,1-.611-2.819,2.137,2.137,0,0,1,1.936-1.316l5-.736,2.4-4.694A2.389,2.389,0,0,1,18.759,8.4Zm9.394,8.625-5.9-.868L19.42,10.608l-.016-.04a.68.68,0,0,0-1.292,0l-.016.04-2.834,5.548-5.987.881H9.213a.438.438,0,0,0-.44.28.913.913,0,0,0,.265.973l4.229,4.356-1.127,6.1a.528.528,0,0,0,.11.469.92.92,0,0,0,.69.3.727.727,0,0,0,.324-.071l5.364-2.909,5.416,2.938a.9.9,0,0,0,.468.151.587.587,0,0,0,.459-.22.786.786,0,0,0,.145-.663v-.007l-1.129-6.107,4.546-4.391.037-.029a.542.542,0,0,0,.209-.583A.821.821,0,0,0,28.153,17.025Z" transform="translate(-7.022 -8.4)" fill="#333"/>
</svg>
